<svg xmlns="http://www.w3.org/2000/svg" viewBox="-4 -4 32 32" fill="none">
  <defs>
    <linearGradient id="grad" x1="0" y1="24" x2="24" y2="0" gradientUnits="userSpaceOnUse">
      <stop stop-color="#2563EB" />
      <stop offset="1" stop-color="#06B6D4" />
    </linearGradient>
  </defs>
  <rect width="24" height="24" rx="6" fill="url(#grad)" />
  <path fill-rule="evenodd" d="M4.804 21.644A6.707 6.707 0 0 0 6 21.75a6.721 6.721 0 0 0 3.583-1.029c.774.182 1.584.279 2.417.279 5.322 0 9.75-3.97 9.75-9 0-5.03-4.428-9-9.75-9s-9.75 3.97-9.75 9c0 2.409 1.025 4.587 2.674 6.192.232.226.277.428.254.543a3.73 3.73 0 0 1-.814 1.686.75.75 0 0 0 .44 1.223ZM8.25 9.75a.75.75 0 0 1 .75-.75h6a.75.75 0 0 1 0 1.5h-6a.75.75 0 0 1-.75-.75Zm0 4.5a.75.75 0 0 1 .75-.75h6a.75.75 0 0 1 0 1.5h-6a.75.75 0 0 1-.75-.75Z" clip-rule="evenodd" fill="white" />
</svg>
